<?xml version="1.0" standalone="no"?>
<!DOCTYPE svg PUBLIC "-//W3C//DTD SVG 20010904//EN"
 "http://www.w3.org/TR/2001/REC-SVG-20010904/DTD/svg10.dtd">
<svg version="1.0" xmlns="http://www.w3.org/2000/svg"
 width="260.000000pt" height="260.000000pt" viewBox="0 0 260.000000 260.000000"
 preserveAspectRatio="xMidYMid meet">
<metadata>
Created by potrace 1.11, written by Peter Selinger 2001-2013
</metadata>
<g transform="translate(0.000000,260.000000) scale(0.100000,-0.100000)"
fill="#000000" stroke="none">
<path d="M1054 1925 c-165 -25 -348 -81 -475 -145 -148 -75 -279 -196 -332
-307 -30 -63 -32 -75 -32 -173 1 -91 4 -112 26 -160 96 -206 381 -379 742
-452 97 -20 141 -23 337 -23 196 1 239 4 330 23 261 57 478 161 611 294 67 67
105 128 129 207 98 314 -207 612 -738 723 -128 26 -464 34 -598 13z m521 -71
c331 -57 599 -228 675 -432 32 -85 25 -197 -18 -284 -130 -264 -597 -449
-1032 -410 -324 30 -585 138 -733 302 -222 247 -113 546 265 725 107 51 285
100 415 114 112 12 312 6 428 -15z"/>
<path d="M1132 1850 c-311 -44 -575 -196 -668 -386 -36 -74 -45 -196 -19 -273
91 -275 495 -469 935 -447 363 17 674 174 782 393 31 63 33 75 33 168 0 90 -3
106 -29 160 -35 72 -154 194 -240 244 -77 46 -221 99 -331 123 -103 22 -362
32 -463 18z m257 -121 c30 -7 48 -6 55 1 5 5 43 10 83 10 l73 0 0 -70 0 -70
-51 0 c-33 0 -63 7 -83 19 -99 61 -308 88 -369 48 -35 -22 -33 -56 3 -74 15
-8 66 -13 130 -13 116 -1 241 -19 287 -43 44 -23 91 -81 99 -122 14 -77 -26
-140 -119 -184 -138 -65 -282 -69 -512 -14 -16 3 -25 -4 -38 -31 -15 -32 -21
-36 -57 -36 l-40 0 0 110 0 110 36 0 c26 0 46 -9 72 -31 45 -40 121 -74 200
-89 79 -16 207 -9 249 13 38 20 67 69 58 98 -13 41 -56 50 -269 58 -172 7
-209 12 -259 31 -69 26 -101 66 -93 118 13 84 111 147 271 171 65 10 204 5
274 -10z m599 -457 l3 -103 -28 3 c-21 2 -29 9 -31 28 -11 90 -44 110 -182
110 l-100 0 6 28 c4 15 9 30 11 35 3 4 75 6 161 5 l157 -3 3 -103z m-559 81
c22 -40 -40 -84 -120 -87 -40 -1 -51 3 -64 22 -13 17 -26 22 -61 22 -42 0 -44
1 -44 30 l0 30 140 0 c121 0 140 -2 149 -17z m321 -248 l0 -135 -25 0 c-17 0
-29 9 -39 29 -9 16 -29 40 -46 55 -29 24 -39 26 -126 26 l-94 0 0 -64 c0 -59
2 -66 30 -89 16 -14 47 -28 70 -32 34 -6 40 -10 40 -31 l0 -24 -240 0 -240 0
0 24 c0 20 6 24 45 29 54 8 120 40 129 62 3 9 6 52 6 95 l0 78 33 8 c17 4 93
7 167 6 153 -2 190 8 225 65 13 20 28 32 43 33 22 0 22 -2 22 -135z"/>
</g>
</svg>
